<svg width="1001" height="499" viewBox="0 0 1001 499" fill="none" xmlns="http://www.w3.org/2000/svg">
<g opacity="0.29827">
<path d="M1008.08 166.448L443.182 -353.858V-744.19L28.1096 -767C24.9043 -759.456 4.36709 -737.714 7.57176 -725.596C11.43 -711.102 30.8387 -715.735 36.4776 -706.409C43.0661 -695.42 31.7291 -650.749 28.3457 -637.86C21.8759 -613.445 7.09676 -593.665 2.82235 -569.25C-4.35982 -528.263 10.1824 -531.53 37.7242 -505.927C84.141 -462.742 46.9244 -417.952 58.6176 -367.223C68.1146 -325.878 109.605 -304.554 124.8 -263.211C136.553 -231.37 152.697 -223.233 177.746 -199.947C177.153 -214.084 164.51 -255.785 188.253 -252.102C211.817 -248.478 202.736 -213.669 207.247 -199.115C211.045 -186.997 237.933 -162.761 215.616 -151.593C208.196 -147.91 187.066 -162.582 178.577 -166.503C184.572 -147.791 180.774 -128.367 190.271 -110.487C201.608 -89.162 213.835 -97.3588 228.853 -85.7754C244.344 -73.8355 242.683 -60.1137 235.797 -42.0554C228.615 -23.2247 221.196 -26.1352 232.592 -3.44342C240.843 12.9512 254.85 33.7421 266.9 46.2164C273.904 53.4634 281.502 55.1267 288.506 64.3932C294.323 72.1155 292.067 82.2142 299.012 89.1638C310.883 101.104 331.006 101.282 340.384 116.904C350.831 134.309 338.96 147.437 369.706 145.833C371.309 180.643 377.897 212.185 377.541 246.994C394.695 253.825 422.414 245.687 440.399 242.063C458.266 266.18 481.355 249.429 501.774 262.558C510.678 268.26 508.837 282.517 514.239 287.506C525.339 297.723 533.529 291.308 547.301 294.872C557.51 297.486 565.404 304.97 575.138 307.703C584.338 310.257 599.475 304.258 606.301 312.396C614.492 322.138 600.78 339.958 613.127 347.799C623.395 354.333 638.115 338.77 648.088 341.027C659.721 343.7 693.079 374.174 701.271 384.212C710.59 395.677 719.969 417.062 725.25 431.793C733.501 454.841 732.373 466.127 749.408 482.998C760.27 493.75 749.942 494.522 767.63 497.67C779.204 499.749 794.518 491.374 806.212 490.067C830.549 487.394 855.122 492.027 879.102 487.453C901.421 483.176 922.729 476.166 945.64 472.899C965.465 470.048 1000.37 472.246 1017.94 462.801C1036.99 452.643 1038.71 429.654 1011.17 433.932C1008.97 419.26 1018.77 399.003 1007.85 388.847C1023.04 368.056 1028.56 353.384 1030.93 327.959C1032 316.792 1032.48 304.436 1038 295.05C1043.4 285.783 1058.59 280.259 1061.56 272.299C1066.13 259.943 1058.83 254.419 1053.25 247.528C1049.69 243.073 1039.54 245.212 1036.63 241.291C1031.23 234.103 1036.57 226.678 1033.6 219.431C1024.94 198.462 1014.61 190.205 1008.08 166.444C1008.26 170.424 1008.44 174.463 1008.2 178.384" stroke="white" stroke-width="2" stroke-linecap="round" stroke-linejoin="round"/>
</g>
<path d="M726.051 89.5C717.482 112.881 686.439 122.779 702.5 138.061C707.259 142.589 712.593 184.158 726.051 172C715.278 181.731 774.909 125.232 777.5 138.061C780.175 151.31 791.833 141.771 805.5 152.903C819.167 164.035 798.527 173.076 791 188.561C785.644 199.578 864.5 229.5 843 229.5C864 274.5 840.315 263.561 753.815 263.561C730.315 296.561 759.856 298.217 753.815 300.061C747.593 301.96 791.051 318.061 777.5 328.561C784.418 342.516 734.386 335.716 726.051 354.061C700.051 354.061 756.31 401.498 753.611 407.061C751.498 411.418 726.99 468.31 726.051 473.061" stroke="white" stroke-width="2"/>
<path fill-rule="evenodd" clip-rule="evenodd" d="M723.5 481C727.09 481 730 478.09 730 474.5C730 470.91 727.09 468 723.5 468C719.91 468 717 470.91 717 474.5C717 478.09 719.91 481 723.5 481Z" fill="#4AF6CD"/>
<path fill-rule="evenodd" clip-rule="evenodd" d="M661 363C662.657 363 664 361.657 664 360C664 358.343 662.657 357 661 357C659.343 357 658 358.343 658 360C658 361.657 659.343 363 661 363Z" fill="#4AF6CD"/>
<path fill-rule="evenodd" clip-rule="evenodd" d="M573 323C574.657 323 576 321.657 576 320C576 318.343 574.657 317 573 317C571.343 317 570 318.343 570 320C570 321.657 571.343 323 573 323Z" fill="#4AF6CD"/>
<path fill-rule="evenodd" clip-rule="evenodd" d="M365 228C366.657 228 368 226.657 368 225C368 223.343 366.657 222 365 222C363.343 222 362 223.343 362 225C362 226.657 363.343 228 365 228Z" fill="#4AF6CD"/>
<path fill-rule="evenodd" clip-rule="evenodd" d="M729.5 91C733.09 91 736 88.0899 736 84.5C736 80.9101 733.09 78 729.5 78C725.91 78 723 80.9101 723 84.5C723 88.0899 725.91 91 729.5 91Z" fill="#4AF6CD"/>
<path d="M545.021 478.976L544.845 480.192H540.573V483.792H544.285V485.008H540.573V488.784H545.149V490H539.053V478.976H545.021ZM553.028 488.032C553.028 488.373 553.087 488.629 553.204 488.8C553.321 488.96 553.497 489.083 553.732 489.168L553.396 490.192C552.959 490.139 552.607 490.016 552.34 489.824C552.073 489.632 551.876 489.333 551.748 488.928C551.183 489.771 550.345 490.192 549.236 490.192C548.404 490.192 547.748 489.957 547.268 489.488C546.788 489.019 546.548 488.405 546.548 487.648C546.548 486.752 546.868 486.064 547.508 485.584C548.159 485.104 549.076 484.864 550.26 484.864H551.556V484.24C551.556 483.643 551.412 483.216 551.124 482.96C550.836 482.704 550.393 482.576 549.796 482.576C549.177 482.576 548.42 482.725 547.524 483.024L547.156 481.952C548.201 481.568 549.172 481.376 550.068 481.376C551.06 481.376 551.801 481.621 552.292 482.112C552.783 482.592 553.028 483.28 553.028 484.176V488.032ZM549.572 489.088C550.415 489.088 551.076 488.651 551.556 487.776V485.84H550.452C548.895 485.84 548.116 486.416 548.116 487.568C548.116 488.069 548.239 488.448 548.484 488.704C548.729 488.96 549.092 489.088 549.572 489.088ZM558.183 481.376C558.759 481.376 559.276 481.456 559.735 481.616C560.194 481.776 560.631 482.016 561.047 482.336L560.423 483.264C560.039 483.019 559.671 482.837 559.319 482.72C558.978 482.603 558.615 482.544 558.231 482.544C557.751 482.544 557.372 482.645 557.095 482.848C556.818 483.04 556.679 483.307 556.679 483.648C556.679 483.989 556.807 484.256 557.063 484.448C557.33 484.64 557.804 484.827 558.487 485.008C559.426 485.243 560.124 485.563 560.583 485.968C561.052 486.373 561.287 486.928 561.287 487.632C561.287 488.464 560.962 489.099 560.311 489.536C559.671 489.973 558.887 490.192 557.959 490.192C556.679 490.192 555.618 489.824 554.775 489.088L555.559 488.192C556.274 488.736 557.063 489.008 557.927 489.008C558.482 489.008 558.919 488.896 559.239 488.672C559.57 488.437 559.735 488.123 559.735 487.728C559.735 487.44 559.676 487.211 559.559 487.04C559.442 486.859 559.239 486.704 558.951 486.576C558.663 486.437 558.242 486.293 557.687 486.144C556.791 485.909 556.14 485.595 555.735 485.2C555.34 484.805 555.143 484.304 555.143 483.696C555.143 483.259 555.271 482.864 555.527 482.512C555.794 482.149 556.156 481.872 556.615 481.68C557.084 481.477 557.607 481.376 558.183 481.376ZM567.62 489.616C567.065 490 566.436 490.192 565.732 490.192C565.017 490.192 564.457 489.989 564.052 489.584C563.657 489.168 563.46 488.571 563.46 487.792V482.704H561.988V481.568H563.46V479.664L564.932 479.488V481.568H566.932L566.772 482.704H564.932V487.728C564.932 488.165 565.006 488.485 565.156 488.688C565.316 488.88 565.577 488.976 565.94 488.976C566.27 488.976 566.644 488.864 567.06 488.64L567.62 489.616ZM576.179 478.784C576.915 478.784 577.545 478.891 578.067 479.104C578.59 479.307 579.097 479.627 579.587 480.064L578.755 480.992C578.339 480.661 577.929 480.421 577.523 480.272C577.129 480.112 576.702 480.032 576.243 480.032C575.667 480.032 575.193 480.165 574.819 480.432C574.446 480.699 574.259 481.088 574.259 481.6C574.259 481.92 574.323 482.192 574.451 482.416C574.579 482.629 574.814 482.827 575.155 483.008C575.507 483.189 576.014 483.381 576.675 483.584C577.369 483.797 577.945 484.027 578.403 484.272C578.862 484.517 579.23 484.859 579.507 485.296C579.795 485.723 579.939 486.267 579.939 486.928C579.939 487.568 579.779 488.133 579.459 488.624C579.15 489.115 578.697 489.499 578.099 489.776C577.513 490.053 576.814 490.192 576.003 490.192C574.478 490.192 573.23 489.717 572.259 488.768L573.091 487.84C573.539 488.203 573.993 488.48 574.451 488.672C574.91 488.853 575.422 488.944 575.987 488.944C576.67 488.944 577.235 488.779 577.683 488.448C578.131 488.107 578.355 487.616 578.355 486.976C578.355 486.613 578.286 486.315 578.147 486.08C578.009 485.835 577.769 485.616 577.427 485.424C577.097 485.232 576.611 485.04 575.971 484.848C574.841 484.507 574.014 484.096 573.491 483.616C572.969 483.136 572.707 482.485 572.707 481.664C572.707 481.109 572.851 480.613 573.139 480.176C573.438 479.739 573.849 479.397 574.371 479.152C574.905 478.907 575.507 478.784 576.179 478.784ZM586.066 481.376C586.834 481.376 587.431 481.605 587.858 482.064C588.295 482.523 588.514 483.152 588.514 483.952V490H587.042V484.16C587.042 483.563 586.925 483.141 586.69 482.896C586.466 482.651 586.135 482.528 585.698 482.528C585.261 482.528 584.871 482.656 584.53 482.912C584.189 483.168 583.869 483.531 583.57 484V490H582.098V478.192L583.57 478.032V482.736C584.231 481.829 585.063 481.376 586.066 481.376ZM594.641 481.376C595.825 481.376 596.742 481.771 597.393 482.56C598.054 483.349 598.385 484.421 598.385 485.776C598.385 486.651 598.236 487.424 597.937 488.096C597.638 488.757 597.206 489.275 596.641 489.648C596.076 490.011 595.404 490.192 594.625 490.192C593.441 490.192 592.518 489.797 591.857 489.008C591.196 488.219 590.865 487.147 590.865 485.792C590.865 484.917 591.014 484.149 591.313 483.488C591.612 482.816 592.044 482.299 592.609 481.936C593.174 481.563 593.852 481.376 594.641 481.376ZM594.641 482.56C593.18 482.56 592.449 483.637 592.449 485.792C592.449 487.936 593.174 489.008 594.625 489.008C596.076 489.008 596.801 487.931 596.801 485.776C596.801 483.632 596.081 482.56 594.641 482.56ZM604.481 481.376C604.78 481.376 605.057 481.408 605.313 481.472L605.041 482.912C604.785 482.848 604.54 482.816 604.305 482.816C603.782 482.816 603.361 483.008 603.041 483.392C602.721 483.776 602.47 484.373 602.289 485.184V490H600.817V481.568H602.081L602.225 483.28C602.449 482.651 602.753 482.176 603.137 481.856C603.521 481.536 603.969 481.376 604.481 481.376ZM612.872 485.536C612.872 485.781 612.862 486.032 612.84 486.288H607.464C607.528 487.216 607.763 487.899 608.168 488.336C608.574 488.773 609.096 488.992 609.736 488.992C610.142 488.992 610.515 488.933 610.856 488.816C611.198 488.699 611.555 488.512 611.928 488.256L612.568 489.136C611.672 489.84 610.691 490.192 609.624 490.192C608.451 490.192 607.534 489.808 606.872 489.04C606.222 488.272 605.896 487.216 605.896 485.872C605.896 484.997 606.035 484.224 606.312 483.552C606.6 482.869 607.006 482.336 607.528 481.952C608.062 481.568 608.686 481.376 609.4 481.376C610.52 481.376 611.379 481.744 611.976 482.48C612.574 483.216 612.872 484.235 612.872 485.536ZM611.416 485.104C611.416 484.272 611.251 483.637 610.92 483.2C610.59 482.763 610.094 482.544 609.432 482.544C608.227 482.544 607.571 483.429 607.464 485.2H611.416V485.104ZM621.41 477.184V491.568H621.058V477.184H621.41ZM640.237 490H638.765L638.381 485.024C638.221 483.072 638.131 481.573 638.109 480.528L635.725 488.752H634.301L631.789 480.512C631.789 481.845 631.72 483.387 631.581 485.136L631.213 490H629.773L630.685 478.976H632.733L635.053 486.992L637.261 478.976H639.325L640.237 490ZM648.434 488.032C648.434 488.373 648.493 488.629 648.61 488.8C648.728 488.96 648.904 489.083 649.138 489.168L648.802 490.192C648.365 490.139 648.013 490.016 647.746 489.824C647.48 489.632 647.282 489.333 647.154 488.928C646.589 489.771 645.752 490.192 644.642 490.192C643.81 490.192 643.154 489.957 642.674 489.488C642.194 489.019 641.954 488.405 641.954 487.648C641.954 486.752 642.274 486.064 642.914 485.584C643.565 485.104 644.482 484.864 645.666 484.864H646.962V484.24C646.962 483.643 646.818 483.216 646.53 482.96C646.242 482.704 645.8 482.576 645.202 482.576C644.584 482.576 643.826 482.725 642.93 483.024L642.562 481.952C643.608 481.568 644.578 481.376 645.474 481.376C646.466 481.376 647.208 481.621 647.698 482.112C648.189 482.592 648.434 483.28 648.434 484.176V488.032ZM644.978 489.088C645.821 489.088 646.482 488.651 646.962 487.776V485.84H645.858C644.301 485.84 643.522 486.416 643.522 487.568C643.522 488.069 643.645 488.448 643.89 488.704C644.136 488.96 644.498 489.088 644.978 489.088ZM652.981 490.192C652.437 490.192 652.005 490.032 651.685 489.712C651.376 489.381 651.221 488.923 651.221 488.336V478.176L652.693 478V488.304C652.693 488.539 652.731 488.709 652.805 488.816C652.891 488.923 653.029 488.976 653.221 488.976C653.424 488.976 653.605 488.944 653.765 488.88L654.149 489.904C653.797 490.096 653.408 490.192 652.981 490.192ZM657.461 481.568V490H655.989V481.568H657.461ZM656.709 477.52C657.018 477.52 657.269 477.616 657.461 477.808C657.653 478 657.749 478.24 657.749 478.528C657.749 478.816 657.653 479.056 657.461 479.248C657.269 479.429 657.018 479.52 656.709 479.52C656.41 479.52 656.165 479.429 655.973 479.248C655.781 479.056 655.685 478.816 655.685 478.528C655.685 478.24 655.781 478 655.973 477.808C656.165 477.616 656.41 477.52 656.709 477.52ZM664.36 481.376C665.32 481.376 666.083 481.765 666.648 482.544C667.214 483.312 667.496 484.389 667.496 485.776C667.496 486.651 667.363 487.424 667.096 488.096C666.83 488.757 666.446 489.275 665.944 489.648C665.443 490.011 664.856 490.192 664.184 490.192C663.299 490.192 662.552 489.819 661.944 489.072L661.8 490H660.504V478.176L661.976 478V482.624C662.584 481.792 663.379 481.376 664.36 481.376ZM663.832 489.024C664.483 489.024 664.99 488.763 665.352 488.24C665.726 487.707 665.912 486.885 665.912 485.776C665.912 484.635 665.742 483.813 665.4 483.312C665.059 482.8 664.574 482.544 663.944 482.544C663.198 482.544 662.542 482.981 661.976 483.856V487.888C662.2 488.24 662.472 488.517 662.792 488.72C663.123 488.923 663.47 489.024 663.832 489.024ZM676.276 490H675.012L674.9 488.688C674.58 489.211 674.212 489.595 673.796 489.84C673.38 490.075 672.874 490.192 672.276 490.192C671.54 490.192 670.964 489.968 670.548 489.52C670.132 489.072 669.924 488.437 669.924 487.616V481.568H671.396V487.456C671.396 488.032 671.498 488.443 671.7 488.688C671.903 488.923 672.234 489.04 672.692 489.04C673.514 489.04 674.218 488.555 674.804 487.584V481.568H676.276V490ZM679.701 487.968C680.021 487.968 680.288 488.075 680.501 488.288C680.714 488.501 680.821 488.763 680.821 489.072C680.821 489.403 680.725 489.781 680.533 490.208L679.461 492.656H678.405L679.045 490C678.906 489.893 678.794 489.76 678.709 489.6C678.634 489.44 678.597 489.264 678.597 489.072C678.597 488.763 678.704 488.501 678.917 488.288C679.13 488.075 679.392 487.968 679.701 487.968ZM691.331 478.784C691.992 478.784 692.547 478.869 692.995 479.04C693.454 479.211 693.918 479.488 694.387 479.872L693.555 480.848C692.883 480.304 692.174 480.032 691.427 480.032C690.51 480.032 689.768 480.384 689.203 481.088C688.648 481.792 688.371 482.923 688.371 484.48C688.371 485.995 688.648 487.115 689.203 487.84C689.758 488.555 690.494 488.912 691.411 488.912C691.88 488.912 692.291 488.832 692.643 488.672C692.995 488.512 693.368 488.288 693.763 488L694.515 488.96C694.174 489.312 693.736 489.605 693.203 489.84C692.67 490.075 692.056 490.192 691.363 490.192C690.467 490.192 689.667 489.973 688.963 489.536C688.27 489.088 687.726 488.437 687.331 487.584C686.947 486.72 686.755 485.685 686.755 484.48C686.755 483.275 686.958 482.245 687.363 481.392C687.768 480.528 688.318 479.877 689.011 479.44C689.704 479.003 690.478 478.784 691.331 478.784ZM702.3 490L701.468 487.232H697.292L696.46 490H694.924L698.46 478.976H700.38L703.9 490H702.3ZM697.66 486H701.1L699.388 480.24L697.66 486Z" fill="white"/>
<path d="M598.378 75.784C599.039 75.784 599.594 75.8693 600.042 76.04C600.501 76.2107 600.965 76.488 601.434 76.872L600.602 77.848C599.93 77.304 599.221 77.032 598.474 77.032C597.557 77.032 596.815 77.384 596.25 78.088C595.695 78.792 595.418 79.9227 595.418 81.48C595.418 82.9947 595.695 84.1147 596.25 84.84C596.805 85.5547 597.541 85.912 598.458 85.912C598.927 85.912 599.338 85.832 599.69 85.672C600.042 85.512 600.415 85.288 600.81 85L601.562 85.96C601.221 86.312 600.783 86.6053 600.25 86.84C599.717 87.0747 599.103 87.192 598.41 87.192C597.514 87.192 596.714 86.9733 596.01 86.536C595.317 86.088 594.773 85.4373 594.378 84.584C593.994 83.72 593.802 82.6853 593.802 81.48C593.802 80.2747 594.005 79.2453 594.41 78.392C594.815 77.528 595.365 76.8773 596.058 76.44C596.751 76.0027 597.525 75.784 598.378 75.784ZM609.401 87H608.137L608.025 85.688C607.705 86.2107 607.337 86.5947 606.921 86.84C606.505 87.0747 605.999 87.192 605.401 87.192C604.665 87.192 604.089 86.968 603.673 86.52C603.257 86.072 603.049 85.4373 603.049 84.616V78.568H604.521V84.456C604.521 85.032 604.623 85.4427 604.825 85.688C605.028 85.9227 605.359 86.04 605.817 86.04C606.639 86.04 607.343 85.5547 607.929 84.584V78.568H609.401V87ZM616.106 78.376C616.405 78.376 616.682 78.408 616.938 78.472L616.666 79.912C616.41 79.848 616.165 79.816 615.93 79.816C615.407 79.816 614.986 80.008 614.666 80.392C614.346 80.776 614.095 81.3733 613.914 82.184V87H612.442V78.568H613.706L613.85 80.28C614.074 79.6507 614.378 79.176 614.762 78.856C615.146 78.536 615.594 78.376 616.106 78.376ZM622.278 78.376C622.576 78.376 622.854 78.408 623.11 78.472L622.838 79.912C622.582 79.848 622.336 79.816 622.102 79.816C621.579 79.816 621.158 80.008 620.838 80.392C620.518 80.776 620.267 81.3733 620.086 82.184V87H618.614V78.568H619.878L620.022 80.28C620.246 79.6507 620.55 79.176 620.934 78.856C621.318 78.536 621.766 78.376 622.278 78.376ZM630.669 82.536C630.669 82.7813 630.659 83.032 630.637 83.288H625.261C625.325 84.216 625.56 84.8987 625.965 85.336C626.371 85.7733 626.893 85.992 627.533 85.992C627.939 85.992 628.312 85.9333 628.653 85.816C628.995 85.6987 629.352 85.512 629.725 85.256L630.365 86.136C629.469 86.84 628.488 87.192 627.421 87.192C626.248 87.192 625.331 86.808 624.669 86.04C624.019 85.272 623.693 84.216 623.693 82.872C623.693 81.9973 623.832 81.224 624.109 80.552C624.397 79.8693 624.803 79.336 625.325 78.952C625.859 78.568 626.483 78.376 627.197 78.376C628.317 78.376 629.176 78.744 629.773 79.48C630.371 80.216 630.669 81.2347 630.669 82.536ZM629.213 82.104C629.213 81.272 629.048 80.6373 628.717 80.2C628.387 79.7627 627.891 79.544 627.229 79.544C626.024 79.544 625.368 80.4293 625.261 82.2H629.213V82.104ZM636.988 78.376C637.756 78.376 638.353 78.6053 638.78 79.064C639.217 79.5227 639.436 80.152 639.436 80.952V87H637.964V81.16C637.964 80.5627 637.852 80.1413 637.628 79.896C637.404 79.6507 637.073 79.528 636.636 79.528C636.188 79.528 635.793 79.656 635.452 79.912C635.111 80.168 634.791 80.536 634.492 81.016V87H633.02V78.568H634.284L634.412 79.816C634.711 79.368 635.079 79.016 635.516 78.76C635.964 78.504 636.455 78.376 636.988 78.376ZM646.651 86.616C646.096 87 645.467 87.192 644.763 87.192C644.048 87.192 643.488 86.9893 643.083 86.584C642.688 86.168 642.491 85.5707 642.491 84.792V79.704H641.019V78.568H642.491V76.664L643.963 76.488V78.568H645.963L645.803 79.704H643.963V84.728C643.963 85.1653 644.038 85.4853 644.187 85.688C644.347 85.88 644.608 85.976 644.971 85.976C645.302 85.976 645.675 85.864 646.091 85.64L646.651 86.616ZM654.011 75.976V85.672H658.539L658.363 87H652.491V75.976H654.011ZM663.141 78.376C664.325 78.376 665.242 78.7707 665.893 79.56C666.554 80.3493 666.885 81.4213 666.885 82.776C666.885 83.6507 666.736 84.424 666.437 85.096C666.138 85.7573 665.706 86.2747 665.141 86.648C664.576 87.0107 663.904 87.192 663.125 87.192C661.941 87.192 661.018 86.7973 660.357 86.008C659.696 85.2187 659.365 84.1467 659.365 82.792C659.365 81.9173 659.514 81.1493 659.813 80.488C660.112 79.816 660.544 79.2987 661.109 78.936C661.674 78.5627 662.352 78.376 663.141 78.376ZM663.141 79.56C661.68 79.56 660.949 80.6373 660.949 82.792C660.949 84.936 661.674 86.008 663.125 86.008C664.576 86.008 665.301 84.9307 665.301 82.776C665.301 80.632 664.581 79.56 663.141 79.56ZM672.389 78.376C672.89 78.376 673.349 78.4507 673.765 78.6C674.181 78.7387 674.581 78.968 674.965 79.288L674.261 80.216C673.962 80.0027 673.669 79.848 673.381 79.752C673.104 79.6453 672.794 79.592 672.453 79.592C671.77 79.592 671.237 79.864 670.853 80.408C670.48 80.952 670.293 81.7573 670.293 82.824C670.293 83.8907 670.48 84.68 670.853 85.192C671.226 85.6933 671.76 85.944 672.453 85.944C672.784 85.944 673.088 85.896 673.365 85.8C673.642 85.6933 673.952 85.528 674.293 85.304L674.965 86.264C674.197 86.8827 673.338 87.192 672.389 87.192C671.248 87.192 670.346 86.808 669.685 86.04C669.034 85.272 668.709 84.2107 668.709 82.856C668.709 81.96 668.858 81.176 669.157 80.504C669.456 79.832 669.877 79.3093 670.421 78.936C670.976 78.5627 671.632 78.376 672.389 78.376ZM682.481 85.032C682.481 85.3733 682.54 85.6293 682.657 85.8C682.775 85.96 682.951 86.0827 683.185 86.168L682.849 87.192C682.412 87.1387 682.06 87.016 681.793 86.824C681.527 86.632 681.329 86.3333 681.201 85.928C680.636 86.7707 679.799 87.192 678.689 87.192C677.857 87.192 677.201 86.9573 676.721 86.488C676.241 86.0187 676.001 85.4053 676.001 84.648C676.001 83.752 676.321 83.064 676.961 82.584C677.612 82.104 678.529 81.864 679.713 81.864H681.009V81.24C681.009 80.6427 680.865 80.216 680.577 79.96C680.289 79.704 679.847 79.576 679.249 79.576C678.631 79.576 677.873 79.7253 676.977 80.024L676.609 78.952C677.655 78.568 678.625 78.376 679.521 78.376C680.513 78.376 681.255 78.6213 681.745 79.112C682.236 79.592 682.481 80.28 682.481 81.176V85.032ZM679.025 86.088C679.868 86.088 680.529 85.6507 681.009 84.776V82.84H679.905C678.348 82.84 677.569 83.416 677.569 84.568C677.569 85.0693 677.692 85.448 677.937 85.704C678.183 85.96 678.545 86.088 679.025 86.088ZM689.76 86.616C689.206 87 688.576 87.192 687.872 87.192C687.158 87.192 686.598 86.9893 686.192 86.584C685.798 86.168 685.6 85.5707 685.6 84.792V79.704H684.128V78.568H685.6V76.664L687.072 76.488V78.568H689.072L688.912 79.704H687.072V84.728C687.072 85.1653 687.147 85.4853 687.296 85.688C687.456 85.88 687.718 85.976 688.08 85.976C688.411 85.976 688.784 85.864 689.2 85.64L689.76 86.616ZM692.758 78.568V87H691.286V78.568H692.758ZM692.006 74.52C692.315 74.52 692.566 74.616 692.758 74.808C692.95 75 693.046 75.24 693.046 75.528C693.046 75.816 692.95 76.056 692.758 76.248C692.566 76.4293 692.315 76.52 692.006 76.52C691.707 76.52 691.462 76.4293 691.27 76.248C691.078 76.056 690.982 75.816 690.982 75.528C690.982 75.24 691.078 75 691.27 74.808C691.462 74.616 691.707 74.52 692.006 74.52ZM698.969 78.376C700.153 78.376 701.071 78.7707 701.721 79.56C702.383 80.3493 702.713 81.4213 702.713 82.776C702.713 83.6507 702.564 84.424 702.265 85.096C701.967 85.7573 701.535 86.2747 700.969 86.648C700.404 87.0107 699.732 87.192 698.953 87.192C697.769 87.192 696.847 86.7973 696.185 86.008C695.524 85.2187 695.193 84.1467 695.193 82.792C695.193 81.9173 695.343 81.1493 695.641 80.488C695.94 79.816 696.372 79.2987 696.937 78.936C697.503 78.5627 698.18 78.376 698.969 78.376ZM698.969 79.56C697.508 79.56 696.777 80.6373 696.777 82.792C696.777 84.936 697.503 86.008 698.953 86.008C700.404 86.008 701.129 84.9307 701.129 82.776C701.129 80.632 700.409 79.56 698.969 79.56ZM709.113 78.376C709.881 78.376 710.478 78.6053 710.905 79.064C711.342 79.5227 711.561 80.152 711.561 80.952V87H710.089V81.16C710.089 80.5627 709.977 80.1413 709.753 79.896C709.529 79.6507 709.198 79.528 708.761 79.528C708.313 79.528 707.918 79.656 707.577 79.912C707.236 80.168 706.916 80.536 706.617 81.016V87H705.145V78.568H706.409L706.537 79.816C706.836 79.368 707.204 79.016 707.641 78.76C708.089 78.504 708.58 78.376 709.113 78.376Z" fill="white"/>
</svg>
