<svg width="1001" height="496" viewBox="0 0 1001 496" fill="none" xmlns="http://www.w3.org/2000/svg">
<g opacity="0.29827">
<path d="M1008.08 163.448L443.182 -356.858V-747.19L28.1096 -770C24.9043 -762.456 4.36709 -740.714 7.57176 -728.596C11.43 -714.102 30.8387 -718.735 36.4776 -709.409C43.0661 -698.42 31.7291 -653.749 28.3457 -640.86C21.8759 -616.445 7.09676 -596.665 2.82235 -572.25C-4.35982 -531.263 10.1824 -534.53 37.7242 -508.927C84.141 -465.742 46.9244 -420.952 58.6176 -370.223C68.1146 -328.878 109.605 -307.554 124.8 -266.211C136.553 -234.37 152.697 -226.233 177.746 -202.947C177.153 -217.084 164.51 -258.785 188.253 -255.102C211.817 -251.478 202.736 -216.669 207.247 -202.115C211.045 -189.997 237.933 -165.761 215.616 -154.593C208.196 -150.91 187.066 -165.582 178.577 -169.503C184.572 -150.791 180.774 -131.367 190.271 -113.487C201.608 -92.162 213.835 -100.359 228.853 -88.7754C244.344 -76.8355 242.683 -63.1137 235.797 -45.0554C228.615 -26.2247 221.196 -29.1352 232.592 -6.44342C240.843 9.95119 254.85 30.7421 266.9 43.2164C273.904 50.4634 281.502 52.1267 288.506 61.3932C294.323 69.1155 292.067 79.2142 299.012 86.1638C310.883 98.1037 331.006 98.282 340.384 113.904C350.831 131.309 338.96 144.437 369.706 142.833C371.309 177.643 377.897 209.185 377.541 243.994C394.695 250.825 422.414 242.687 440.399 239.063C458.266 263.18 481.355 246.429 501.774 259.558C510.678 265.26 508.837 279.517 514.239 284.506C525.339 294.723 533.529 288.308 547.301 291.872C557.51 294.486 565.404 301.97 575.138 304.703C584.338 307.257 599.475 301.258 606.301 309.396C614.492 319.138 600.78 336.958 613.127 344.799C623.395 351.333 638.115 335.77 648.088 338.027C659.721 340.7 693.079 371.174 701.271 381.212C710.59 392.677 719.969 414.062 725.25 428.793C733.501 451.841 732.373 463.127 749.408 479.998C760.27 490.75 749.942 491.522 767.63 494.67C779.204 496.749 794.518 488.374 806.212 487.067C830.549 484.394 855.122 489.027 879.102 484.453C901.421 480.176 922.729 473.166 945.64 469.899C965.465 467.048 1000.37 469.246 1017.94 459.801C1036.99 449.643 1038.71 426.654 1011.17 430.932C1008.97 416.26 1018.77 396.003 1007.85 385.847C1023.04 365.056 1028.56 350.384 1030.93 324.959C1032 313.792 1032.48 301.436 1038 292.05C1043.4 282.783 1058.59 277.259 1061.56 269.299C1066.13 256.943 1058.83 251.419 1053.25 244.528C1049.69 240.073 1039.54 242.212 1036.63 238.291C1031.23 231.103 1036.57 223.678 1033.6 216.431C1024.94 195.462 1014.61 187.205 1008.08 163.444C1008.26 167.424 1008.44 171.463 1008.2 175.384" stroke="white" stroke-width="2" stroke-linecap="round" stroke-linejoin="round"/>
</g>
<path d="M723.315 87.6222C691.878 106.978 697.174 130.075 691.955 158.032C690.408 166.316 682.61 174.767 674.155 176.145C655.971 179.11 653.156 106.535 641.067 122.307C628.582 138.597 571.649 72.7868 599.045 153.128C596.635 174.884 600.319 200.133 578.189 211.642C562.442 219.831 581.12 163.856 577.198 151.976C561.006 102.93 528.992 119.716 483.946 147.054C451.79 153.977 438.856 165.662 432.581 163.397C435.431 181.707 436.92 208.059 433.827 214.111C423.578 234.167 427.233 198.354 401.427 212.401C393.508 216.711 385.409 216.341 377.463 220.479C371.238 223.721 365.821 229.477 360 233.977" stroke="white" stroke-width="2"/>
<path fill-rule="evenodd" clip-rule="evenodd" d="M359.5 240C363.09 240 366 237.09 366 233.5C366 229.91 363.09 227 359.5 227C355.91 227 353 229.91 353 233.5C353 237.09 355.91 240 359.5 240Z" fill="#4AF6CD"/>
<path fill-rule="evenodd" clip-rule="evenodd" d="M661 363C662.657 363 664 361.657 664 360C664 358.343 662.657 357 661 357C659.343 357 658 358.343 658 360C658 361.657 659.343 363 661 363Z" fill="#4AF6CD"/>
<path fill-rule="evenodd" clip-rule="evenodd" d="M725 471C726.657 471 728 469.657 728 468C728 466.343 726.657 465 725 465C723.343 465 722 466.343 722 468C722 469.657 723.343 471 725 471Z" fill="#4AF6CD"/>
<path fill-rule="evenodd" clip-rule="evenodd" d="M577 328C578.657 328 580 326.657 580 325C580 323.343 578.657 322 577 322C575.343 322 574 323.343 574 325C574 326.657 575.343 328 577 328Z" fill="#4AF6CD"/>
<path fill-rule="evenodd" clip-rule="evenodd" d="M729.5 91C733.09 91 736 88.0899 736 84.5C736 80.9101 733.09 78 729.5 78C725.91 78 723 80.9101 723 84.5C723 88.0899 725.91 91 729.5 91Z" fill="#4AF6CD"/>
<path d="M209.359 255H207.327L202.847 245.64C202.911 246.376 202.959 247.059 202.991 247.688C203.034 248.307 203.055 249.059 203.055 249.944V255H201.631V243.976H203.615L208.143 253.352C208.111 253.075 208.069 252.589 208.015 251.896C207.962 251.203 207.935 250.568 207.935 249.992V243.976H209.359V255ZM215.641 246.376C216.825 246.376 217.742 246.771 218.393 247.56C219.054 248.349 219.385 249.421 219.385 250.776C219.385 251.651 219.236 252.424 218.937 253.096C218.638 253.757 218.206 254.275 217.641 254.648C217.076 255.011 216.404 255.192 215.625 255.192C214.441 255.192 213.518 254.797 212.857 254.008C212.196 253.219 211.865 252.147 211.865 250.792C211.865 249.917 212.014 249.149 212.313 248.488C212.612 247.816 213.044 247.299 213.609 246.936C214.174 246.563 214.852 246.376 215.641 246.376ZM215.641 247.56C214.18 247.56 213.449 248.637 213.449 250.792C213.449 252.936 214.174 254.008 215.625 254.008C217.076 254.008 217.801 252.931 217.801 250.776C217.801 248.632 217.081 247.56 215.641 247.56ZM225.481 246.376C225.78 246.376 226.057 246.408 226.313 246.472L226.041 247.912C225.785 247.848 225.54 247.816 225.305 247.816C224.782 247.816 224.361 248.008 224.041 248.392C223.721 248.776 223.47 249.373 223.289 250.184V255H221.817V246.568H223.081L223.225 248.28C223.449 247.651 223.753 247.176 224.137 246.856C224.521 246.536 224.969 246.376 225.481 246.376ZM232.245 254.616C231.69 255 231.061 255.192 230.357 255.192C229.642 255.192 229.082 254.989 228.677 254.584C228.282 254.168 228.085 253.571 228.085 252.792V247.704H226.613V246.568H228.085V244.664L229.557 244.488V246.568H231.557L231.397 247.704H229.557V252.728C229.557 253.165 229.631 253.485 229.781 253.688C229.941 253.88 230.202 253.976 230.565 253.976C230.895 253.976 231.269 253.864 231.685 253.64L232.245 254.616ZM237.738 246.376C238.506 246.376 239.103 246.605 239.53 247.064C239.967 247.523 240.186 248.152 240.186 248.952V255H238.714V249.16C238.714 248.563 238.597 248.141 238.362 247.896C238.138 247.651 237.807 247.528 237.37 247.528C236.933 247.528 236.543 247.656 236.202 247.912C235.861 248.168 235.541 248.531 235.242 249V255H233.77V243.192L235.242 243.032V247.736C235.903 246.829 236.735 246.376 237.738 246.376ZM250.179 243.784C250.915 243.784 251.545 243.891 252.067 244.104C252.59 244.307 253.097 244.627 253.587 245.064L252.755 245.992C252.339 245.661 251.929 245.421 251.523 245.272C251.129 245.112 250.702 245.032 250.243 245.032C249.667 245.032 249.193 245.165 248.819 245.432C248.446 245.699 248.259 246.088 248.259 246.6C248.259 246.92 248.323 247.192 248.451 247.416C248.579 247.629 248.814 247.827 249.155 248.008C249.507 248.189 250.014 248.381 250.675 248.584C251.369 248.797 251.945 249.027 252.403 249.272C252.862 249.517 253.23 249.859 253.507 250.296C253.795 250.723 253.939 251.267 253.939 251.928C253.939 252.568 253.779 253.133 253.459 253.624C253.15 254.115 252.697 254.499 252.099 254.776C251.513 255.053 250.814 255.192 250.003 255.192C248.478 255.192 247.23 254.717 246.259 253.768L247.091 252.84C247.539 253.203 247.993 253.48 248.451 253.672C248.91 253.853 249.422 253.944 249.987 253.944C250.67 253.944 251.235 253.779 251.683 253.448C252.131 253.107 252.355 252.616 252.355 251.976C252.355 251.613 252.286 251.315 252.147 251.08C252.009 250.835 251.769 250.616 251.427 250.424C251.097 250.232 250.611 250.04 249.971 249.848C248.841 249.507 248.014 249.096 247.491 248.616C246.969 248.136 246.707 247.485 246.707 246.664C246.707 246.109 246.851 245.613 247.139 245.176C247.438 244.739 247.849 244.397 248.371 244.152C248.905 243.907 249.507 243.784 250.179 243.784ZM260.066 246.376C260.834 246.376 261.431 246.605 261.858 247.064C262.295 247.523 262.514 248.152 262.514 248.952V255H261.042V249.16C261.042 248.563 260.925 248.141 260.69 247.896C260.466 247.651 260.135 247.528 259.698 247.528C259.261 247.528 258.871 247.656 258.53 247.912C258.189 248.168 257.869 248.531 257.57 249V255H256.098V243.192L257.57 243.032V247.736C258.231 246.829 259.063 246.376 260.066 246.376ZM268.641 246.376C269.825 246.376 270.742 246.771 271.393 247.56C272.054 248.349 272.385 249.421 272.385 250.776C272.385 251.651 272.236 252.424 271.937 253.096C271.638 253.757 271.206 254.275 270.641 254.648C270.076 255.011 269.404 255.192 268.625 255.192C267.441 255.192 266.518 254.797 265.857 254.008C265.196 253.219 264.865 252.147 264.865 250.792C264.865 249.917 265.014 249.149 265.313 248.488C265.612 247.816 266.044 247.299 266.609 246.936C267.174 246.563 267.852 246.376 268.641 246.376ZM268.641 247.56C267.18 247.56 266.449 248.637 266.449 250.792C266.449 252.936 267.174 254.008 268.625 254.008C270.076 254.008 270.801 252.931 270.801 250.776C270.801 248.632 270.081 247.56 268.641 247.56ZM278.481 246.376C278.78 246.376 279.057 246.408 279.313 246.472L279.041 247.912C278.785 247.848 278.54 247.816 278.305 247.816C277.782 247.816 277.361 248.008 277.041 248.392C276.721 248.776 276.47 249.373 276.289 250.184V255H274.817V246.568H276.081L276.225 248.28C276.449 247.651 276.753 247.176 277.137 246.856C277.521 246.536 277.969 246.376 278.481 246.376ZM286.872 250.536C286.872 250.781 286.862 251.032 286.84 251.288H281.464C281.528 252.216 281.763 252.899 282.168 253.336C282.574 253.773 283.096 253.992 283.736 253.992C284.142 253.992 284.515 253.933 284.856 253.816C285.198 253.699 285.555 253.512 285.928 253.256L286.568 254.136C285.672 254.84 284.691 255.192 283.624 255.192C282.451 255.192 281.534 254.808 280.872 254.04C280.222 253.272 279.896 252.216 279.896 250.872C279.896 249.997 280.035 249.224 280.312 248.552C280.6 247.869 281.006 247.336 281.528 246.952C282.062 246.568 282.686 246.376 283.4 246.376C284.52 246.376 285.379 246.744 285.976 247.48C286.574 248.216 286.872 249.235 286.872 250.536ZM285.416 250.104C285.416 249.272 285.251 248.637 284.92 248.2C284.59 247.763 284.094 247.544 283.432 247.544C282.227 247.544 281.571 248.429 281.464 250.2H285.416V250.104ZM295.41 242.184V256.568H295.058V242.184H295.41ZM314.237 255H312.765L312.381 250.024C312.221 248.072 312.131 246.573 312.109 245.528L309.725 253.752H308.301L305.789 245.512C305.789 246.845 305.72 248.387 305.581 250.136L305.213 255H303.773L304.685 243.976H306.733L309.053 251.992L311.261 243.976H313.325L314.237 255ZM322.434 253.032C322.434 253.373 322.493 253.629 322.61 253.8C322.728 253.96 322.904 254.083 323.138 254.168L322.802 255.192C322.365 255.139 322.013 255.016 321.746 254.824C321.48 254.632 321.282 254.333 321.154 253.928C320.589 254.771 319.752 255.192 318.642 255.192C317.81 255.192 317.154 254.957 316.674 254.488C316.194 254.019 315.954 253.405 315.954 252.648C315.954 251.752 316.274 251.064 316.914 250.584C317.565 250.104 318.482 249.864 319.666 249.864H320.962V249.24C320.962 248.643 320.818 248.216 320.53 247.96C320.242 247.704 319.8 247.576 319.202 247.576C318.584 247.576 317.826 247.725 316.93 248.024L316.562 246.952C317.608 246.568 318.578 246.376 319.474 246.376C320.466 246.376 321.208 246.621 321.698 247.112C322.189 247.592 322.434 248.28 322.434 249.176V253.032ZM318.978 254.088C319.821 254.088 320.482 253.651 320.962 252.776V250.84H319.858C318.301 250.84 317.522 251.416 317.522 252.568C317.522 253.069 317.645 253.448 317.89 253.704C318.136 253.96 318.498 254.088 318.978 254.088ZM326.981 255.192C326.437 255.192 326.005 255.032 325.685 254.712C325.376 254.381 325.221 253.923 325.221 253.336V243.176L326.693 243V253.304C326.693 253.539 326.731 253.709 326.805 253.816C326.891 253.923 327.029 253.976 327.221 253.976C327.424 253.976 327.605 253.944 327.765 253.88L328.149 254.904C327.797 255.096 327.408 255.192 326.981 255.192ZM331.461 246.568V255H329.989V246.568H331.461ZM330.709 242.52C331.018 242.52 331.269 242.616 331.461 242.808C331.653 243 331.749 243.24 331.749 243.528C331.749 243.816 331.653 244.056 331.461 244.248C331.269 244.429 331.018 244.52 330.709 244.52C330.41 244.52 330.165 244.429 329.973 244.248C329.781 244.056 329.685 243.816 329.685 243.528C329.685 243.24 329.781 243 329.973 242.808C330.165 242.616 330.41 242.52 330.709 242.52ZM338.36 246.376C339.32 246.376 340.083 246.765 340.648 247.544C341.214 248.312 341.496 249.389 341.496 250.776C341.496 251.651 341.363 252.424 341.096 253.096C340.83 253.757 340.446 254.275 339.944 254.648C339.443 255.011 338.856 255.192 338.184 255.192C337.299 255.192 336.552 254.819 335.944 254.072L335.8 255H334.504V243.176L335.976 243V247.624C336.584 246.792 337.379 246.376 338.36 246.376ZM337.832 254.024C338.483 254.024 338.99 253.763 339.352 253.24C339.726 252.707 339.912 251.885 339.912 250.776C339.912 249.635 339.742 248.813 339.4 248.312C339.059 247.8 338.574 247.544 337.944 247.544C337.198 247.544 336.542 247.981 335.976 248.856V252.888C336.2 253.24 336.472 253.517 336.792 253.72C337.123 253.923 337.47 254.024 337.832 254.024ZM350.276 255H349.012L348.9 253.688C348.58 254.211 348.212 254.595 347.796 254.84C347.38 255.075 346.874 255.192 346.276 255.192C345.54 255.192 344.964 254.968 344.548 254.52C344.132 254.072 343.924 253.437 343.924 252.616V246.568H345.396V252.456C345.396 253.032 345.498 253.443 345.7 253.688C345.903 253.923 346.234 254.04 346.692 254.04C347.514 254.04 348.218 253.555 348.804 252.584V246.568H350.276V255ZM353.701 252.968C354.021 252.968 354.288 253.075 354.501 253.288C354.714 253.501 354.821 253.763 354.821 254.072C354.821 254.403 354.725 254.781 354.533 255.208L353.461 257.656H352.405L353.045 255C352.906 254.893 352.794 254.76 352.709 254.6C352.634 254.44 352.597 254.264 352.597 254.072C352.597 253.763 352.704 253.501 352.917 253.288C353.13 253.075 353.392 252.968 353.701 252.968ZM365.331 243.784C365.992 243.784 366.547 243.869 366.995 244.04C367.454 244.211 367.918 244.488 368.387 244.872L367.555 245.848C366.883 245.304 366.174 245.032 365.427 245.032C364.51 245.032 363.768 245.384 363.203 246.088C362.648 246.792 362.371 247.923 362.371 249.48C362.371 250.995 362.648 252.115 363.203 252.84C363.758 253.555 364.494 253.912 365.411 253.912C365.88 253.912 366.291 253.832 366.643 253.672C366.995 253.512 367.368 253.288 367.763 253L368.515 253.96C368.174 254.312 367.736 254.605 367.203 254.84C366.67 255.075 366.056 255.192 365.363 255.192C364.467 255.192 363.667 254.973 362.963 254.536C362.27 254.088 361.726 253.437 361.331 252.584C360.947 251.72 360.755 250.685 360.755 249.48C360.755 248.275 360.958 247.245 361.363 246.392C361.768 245.528 362.318 244.877 363.011 244.44C363.704 244.003 364.478 243.784 365.331 243.784ZM376.3 255L375.468 252.232H371.292L370.46 255H368.924L372.46 243.976H374.38L377.9 255H376.3ZM371.66 251H375.1L373.388 245.24L371.66 251Z" fill="white"/>
<path d="M598.378 75.784C599.039 75.784 599.594 75.8693 600.042 76.04C600.501 76.2107 600.965 76.488 601.434 76.872L600.602 77.848C599.93 77.304 599.221 77.032 598.474 77.032C597.557 77.032 596.815 77.384 596.25 78.088C595.695 78.792 595.418 79.9227 595.418 81.48C595.418 82.9947 595.695 84.1147 596.25 84.84C596.805 85.5547 597.541 85.912 598.458 85.912C598.927 85.912 599.338 85.832 599.69 85.672C600.042 85.512 600.415 85.288 600.81 85L601.562 85.96C601.221 86.312 600.783 86.6053 600.25 86.84C599.717 87.0747 599.103 87.192 598.41 87.192C597.514 87.192 596.714 86.9733 596.01 86.536C595.317 86.088 594.773 85.4373 594.378 84.584C593.994 83.72 593.802 82.6853 593.802 81.48C593.802 80.2747 594.005 79.2453 594.41 78.392C594.815 77.528 595.365 76.8773 596.058 76.44C596.751 76.0027 597.525 75.784 598.378 75.784ZM609.401 87H608.137L608.025 85.688C607.705 86.2107 607.337 86.5947 606.921 86.84C606.505 87.0747 605.999 87.192 605.401 87.192C604.665 87.192 604.089 86.968 603.673 86.52C603.257 86.072 603.049 85.4373 603.049 84.616V78.568H604.521V84.456C604.521 85.032 604.623 85.4427 604.825 85.688C605.028 85.9227 605.359 86.04 605.817 86.04C606.639 86.04 607.343 85.5547 607.929 84.584V78.568H609.401V87ZM616.106 78.376C616.405 78.376 616.682 78.408 616.938 78.472L616.666 79.912C616.41 79.848 616.165 79.816 615.93 79.816C615.407 79.816 614.986 80.008 614.666 80.392C614.346 80.776 614.095 81.3733 613.914 82.184V87H612.442V78.568H613.706L613.85 80.28C614.074 79.6507 614.378 79.176 614.762 78.856C615.146 78.536 615.594 78.376 616.106 78.376ZM622.278 78.376C622.576 78.376 622.854 78.408 623.11 78.472L622.838 79.912C622.582 79.848 622.336 79.816 622.102 79.816C621.579 79.816 621.158 80.008 620.838 80.392C620.518 80.776 620.267 81.3733 620.086 82.184V87H618.614V78.568H619.878L620.022 80.28C620.246 79.6507 620.55 79.176 620.934 78.856C621.318 78.536 621.766 78.376 622.278 78.376ZM630.669 82.536C630.669 82.7813 630.659 83.032 630.637 83.288H625.261C625.325 84.216 625.56 84.8987 625.965 85.336C626.371 85.7733 626.893 85.992 627.533 85.992C627.939 85.992 628.312 85.9333 628.653 85.816C628.995 85.6987 629.352 85.512 629.725 85.256L630.365 86.136C629.469 86.84 628.488 87.192 627.421 87.192C626.248 87.192 625.331 86.808 624.669 86.04C624.019 85.272 623.693 84.216 623.693 82.872C623.693 81.9973 623.832 81.224 624.109 80.552C624.397 79.8693 624.803 79.336 625.325 78.952C625.859 78.568 626.483 78.376 627.197 78.376C628.317 78.376 629.176 78.744 629.773 79.48C630.371 80.216 630.669 81.2347 630.669 82.536ZM629.213 82.104C629.213 81.272 629.048 80.6373 628.717 80.2C628.387 79.7627 627.891 79.544 627.229 79.544C626.024 79.544 625.368 80.4293 625.261 82.2H629.213V82.104ZM636.988 78.376C637.756 78.376 638.353 78.6053 638.78 79.064C639.217 79.5227 639.436 80.152 639.436 80.952V87H637.964V81.16C637.964 80.5627 637.852 80.1413 637.628 79.896C637.404 79.6507 637.073 79.528 636.636 79.528C636.188 79.528 635.793 79.656 635.452 79.912C635.111 80.168 634.791 80.536 634.492 81.016V87H633.02V78.568H634.284L634.412 79.816C634.711 79.368 635.079 79.016 635.516 78.76C635.964 78.504 636.455 78.376 636.988 78.376ZM646.651 86.616C646.096 87 645.467 87.192 644.763 87.192C644.048 87.192 643.488 86.9893 643.083 86.584C642.688 86.168 642.491 85.5707 642.491 84.792V79.704H641.019V78.568H642.491V76.664L643.963 76.488V78.568H645.963L645.803 79.704H643.963V84.728C643.963 85.1653 644.038 85.4853 644.187 85.688C644.347 85.88 644.608 85.976 644.971 85.976C645.302 85.976 645.675 85.864 646.091 85.64L646.651 86.616ZM654.011 75.976V85.672H658.539L658.363 87H652.491V75.976H654.011ZM663.141 78.376C664.325 78.376 665.242 78.7707 665.893 79.56C666.554 80.3493 666.885 81.4213 666.885 82.776C666.885 83.6507 666.736 84.424 666.437 85.096C666.138 85.7573 665.706 86.2747 665.141 86.648C664.576 87.0107 663.904 87.192 663.125 87.192C661.941 87.192 661.018 86.7973 660.357 86.008C659.696 85.2187 659.365 84.1467 659.365 82.792C659.365 81.9173 659.514 81.1493 659.813 80.488C660.112 79.816 660.544 79.2987 661.109 78.936C661.674 78.5627 662.352 78.376 663.141 78.376ZM663.141 79.56C661.68 79.56 660.949 80.6373 660.949 82.792C660.949 84.936 661.674 86.008 663.125 86.008C664.576 86.008 665.301 84.9307 665.301 82.776C665.301 80.632 664.581 79.56 663.141 79.56ZM672.389 78.376C672.89 78.376 673.349 78.4507 673.765 78.6C674.181 78.7387 674.581 78.968 674.965 79.288L674.261 80.216C673.962 80.0027 673.669 79.848 673.381 79.752C673.104 79.6453 672.794 79.592 672.453 79.592C671.77 79.592 671.237 79.864 670.853 80.408C670.48 80.952 670.293 81.7573 670.293 82.824C670.293 83.8907 670.48 84.68 670.853 85.192C671.226 85.6933 671.76 85.944 672.453 85.944C672.784 85.944 673.088 85.896 673.365 85.8C673.642 85.6933 673.952 85.528 674.293 85.304L674.965 86.264C674.197 86.8827 673.338 87.192 672.389 87.192C671.248 87.192 670.346 86.808 669.685 86.04C669.034 85.272 668.709 84.2107 668.709 82.856C668.709 81.96 668.858 81.176 669.157 80.504C669.456 79.832 669.877 79.3093 670.421 78.936C670.976 78.5627 671.632 78.376 672.389 78.376ZM682.481 85.032C682.481 85.3733 682.54 85.6293 682.657 85.8C682.775 85.96 682.951 86.0827 683.185 86.168L682.849 87.192C682.412 87.1387 682.06 87.016 681.793 86.824C681.527 86.632 681.329 86.3333 681.201 85.928C680.636 86.7707 679.799 87.192 678.689 87.192C677.857 87.192 677.201 86.9573 676.721 86.488C676.241 86.0187 676.001 85.4053 676.001 84.648C676.001 83.752 676.321 83.064 676.961 82.584C677.612 82.104 678.529 81.864 679.713 81.864H681.009V81.24C681.009 80.6427 680.865 80.216 680.577 79.96C680.289 79.704 679.847 79.576 679.249 79.576C678.631 79.576 677.873 79.7253 676.977 80.024L676.609 78.952C677.655 78.568 678.625 78.376 679.521 78.376C680.513 78.376 681.255 78.6213 681.745 79.112C682.236 79.592 682.481 80.28 682.481 81.176V85.032ZM679.025 86.088C679.868 86.088 680.529 85.6507 681.009 84.776V82.84H679.905C678.348 82.84 677.569 83.416 677.569 84.568C677.569 85.0693 677.692 85.448 677.937 85.704C678.183 85.96 678.545 86.088 679.025 86.088ZM689.76 86.616C689.206 87 688.576 87.192 687.872 87.192C687.158 87.192 686.598 86.9893 686.192 86.584C685.798 86.168 685.6 85.5707 685.6 84.792V79.704H684.128V78.568H685.6V76.664L687.072 76.488V78.568H689.072L688.912 79.704H687.072V84.728C687.072 85.1653 687.147 85.4853 687.296 85.688C687.456 85.88 687.718 85.976 688.08 85.976C688.411 85.976 688.784 85.864 689.2 85.64L689.76 86.616ZM692.758 78.568V87H691.286V78.568H692.758ZM692.006 74.52C692.315 74.52 692.566 74.616 692.758 74.808C692.95 75 693.046 75.24 693.046 75.528C693.046 75.816 692.95 76.056 692.758 76.248C692.566 76.4293 692.315 76.52 692.006 76.52C691.707 76.52 691.462 76.4293 691.27 76.248C691.078 76.056 690.982 75.816 690.982 75.528C690.982 75.24 691.078 75 691.27 74.808C691.462 74.616 691.707 74.52 692.006 74.52ZM698.969 78.376C700.153 78.376 701.071 78.7707 701.721 79.56C702.383 80.3493 702.713 81.4213 702.713 82.776C702.713 83.6507 702.564 84.424 702.265 85.096C701.967 85.7573 701.535 86.2747 700.969 86.648C700.404 87.0107 699.732 87.192 698.953 87.192C697.769 87.192 696.847 86.7973 696.185 86.008C695.524 85.2187 695.193 84.1467 695.193 82.792C695.193 81.9173 695.343 81.1493 695.641 80.488C695.94 79.816 696.372 79.2987 696.937 78.936C697.503 78.5627 698.18 78.376 698.969 78.376ZM698.969 79.56C697.508 79.56 696.777 80.6373 696.777 82.792C696.777 84.936 697.503 86.008 698.953 86.008C700.404 86.008 701.129 84.9307 701.129 82.776C701.129 80.632 700.409 79.56 698.969 79.56ZM709.113 78.376C709.881 78.376 710.478 78.6053 710.905 79.064C711.342 79.5227 711.561 80.152 711.561 80.952V87H710.089V81.16C710.089 80.5627 709.977 80.1413 709.753 79.896C709.529 79.6507 709.198 79.528 708.761 79.528C708.313 79.528 707.918 79.656 707.577 79.912C707.236 80.168 706.916 80.536 706.617 81.016V87H705.145V78.568H706.409L706.537 79.816C706.836 79.368 707.204 79.016 707.641 78.76C708.089 78.504 708.58 78.376 709.113 78.376Z" fill="white"/>
</svg>
