<svg width="1001" height="496" viewBox="0 0 1001 496" fill="none" xmlns="http://www.w3.org/2000/svg">
<g opacity="0.29827">
<path d="M1008.08 163.448L443.182 -356.858V-747.19L28.1096 -770C24.9043 -762.456 4.36709 -740.714 7.57176 -728.596C11.43 -714.102 30.8387 -718.735 36.4776 -709.409C43.0661 -698.42 31.7291 -653.749 28.3457 -640.86C21.8759 -616.445 7.09676 -596.665 2.82235 -572.25C-4.35982 -531.263 10.1824 -534.53 37.7242 -508.927C84.141 -465.742 46.9244 -420.952 58.6176 -370.223C68.1146 -328.878 109.605 -307.554 124.8 -266.211C136.553 -234.37 152.697 -226.233 177.746 -202.947C177.153 -217.084 164.51 -258.785 188.253 -255.102C211.817 -251.478 202.736 -216.669 207.247 -202.115C211.045 -189.997 237.933 -165.761 215.616 -154.593C208.196 -150.91 187.066 -165.582 178.577 -169.503C184.572 -150.791 180.774 -131.367 190.271 -113.487C201.608 -92.162 213.835 -100.359 228.853 -88.7754C244.344 -76.8355 242.683 -63.1137 235.797 -45.0554C228.615 -26.2247 221.196 -29.1352 232.592 -6.44342C240.843 9.95119 254.85 30.7421 266.9 43.2164C273.904 50.4634 281.502 52.1267 288.506 61.3932C294.323 69.1155 292.067 79.2142 299.012 86.1638C310.883 98.1037 331.006 98.282 340.384 113.904C350.831 131.309 338.96 144.437 369.706 142.833C371.309 177.643 377.897 209.185 377.541 243.994C394.695 250.825 422.414 242.687 440.399 239.063C458.266 263.18 481.355 246.429 501.774 259.558C510.678 265.26 508.837 279.517 514.239 284.506C525.339 294.723 533.529 288.308 547.301 291.872C557.51 294.486 565.404 301.97 575.138 304.703C584.338 307.257 599.475 301.258 606.301 309.396C614.492 319.138 600.78 336.958 613.127 344.799C623.395 351.333 638.115 335.77 648.088 338.027C659.721 340.7 693.079 371.174 701.271 381.212C710.59 392.677 719.969 414.062 725.25 428.793C733.501 451.841 732.373 463.127 749.408 479.998C760.27 490.75 749.942 491.522 767.63 494.67C779.204 496.749 794.518 488.374 806.212 487.067C830.549 484.394 855.122 489.027 879.102 484.453C901.421 480.176 922.729 473.166 945.64 469.899C965.465 467.048 1000.37 469.246 1017.94 459.801C1036.99 449.643 1038.71 426.654 1011.17 430.932C1008.97 416.26 1018.77 396.003 1007.85 385.847C1023.04 365.056 1028.56 350.384 1030.93 324.959C1032 313.792 1032.48 301.436 1038 292.05C1043.4 282.783 1058.59 277.259 1061.56 269.299C1066.13 256.943 1058.83 251.419 1053.25 244.528C1049.69 240.073 1039.54 242.212 1036.63 238.291C1031.23 231.103 1036.57 223.678 1033.6 216.431C1024.94 195.462 1014.61 187.205 1008.08 163.444C1008.26 167.424 1008.44 171.463 1008.2 175.384" stroke="white" stroke-width="2" stroke-linecap="round" stroke-linejoin="round"/>
</g>
<path d="M730.235 83.9394C721.667 107.321 741.735 115.526 757.796 130.807C762.555 135.336 763.009 142.817 758 147.342C747.228 157.074 706.385 142.917 708.975 155.745C711.651 168.994 756.443 180.232 758 181.5C771.667 192.632 747.042 188.516 739.515 204C739.515 204 769.17 231.169 758 227.5C758 227.5 812.404 260.961 730.235 253.5C723.945 252.929 763.837 267.656 757.796 269.5C751.574 271.399 705.234 296.5 739.515 291C746.434 304.956 714.629 289.655 706.293 308C703.736 313.629 725.46 303 684.015 331C697.843 351.5 661.061 346.749 660.121 351.5" stroke="white" stroke-width="2"/>
<path fill-rule="evenodd" clip-rule="evenodd" d="M659.5 365C663.09 365 666 362.09 666 358.5C666 354.91 663.09 352 659.5 352C655.91 352 653 354.91 653 358.5C653 362.09 655.91 365 659.5 365Z" fill="#4AF6CD"/>
<path fill-rule="evenodd" clip-rule="evenodd" d="M576 328C577.657 328 579 326.657 579 325C579 323.343 577.657 322 576 322C574.343 322 573 323.343 573 325C573 326.657 574.343 328 576 328Z" fill="#4AF6CD"/>
<path fill-rule="evenodd" clip-rule="evenodd" d="M725 471C726.657 471 728 469.657 728 468C728 466.343 726.657 465 725 465C723.343 465 722 466.343 722 468C722 469.657 723.343 471 725 471Z" fill="#4AF6CD"/>
<path fill-rule="evenodd" clip-rule="evenodd" d="M365 228C366.657 228 368 226.657 368 225C368 223.343 366.657 222 365 222C363.343 222 362 223.343 362 225C362 226.657 363.343 228 365 228Z" fill="#4AF6CD"/>
<path fill-rule="evenodd" clip-rule="evenodd" d="M729.5 91C733.09 91 736 88.0899 736 84.5C736 80.9101 733.09 78 729.5 78C725.91 78 723 80.9101 723 84.5C723 88.0899 725.91 91 729.5 91Z" fill="#4AF6CD"/>
<path d="M478.414 368.784C479.15 368.784 479.779 368.891 480.302 369.104C480.824 369.307 481.331 369.627 481.822 370.064L480.99 370.992C480.574 370.661 480.163 370.421 479.758 370.272C479.363 370.112 478.936 370.032 478.478 370.032C477.902 370.032 477.427 370.165 477.054 370.432C476.68 370.699 476.494 371.088 476.494 371.6C476.494 371.92 476.558 372.192 476.686 372.416C476.814 372.629 477.048 372.827 477.39 373.008C477.742 373.189 478.248 373.381 478.91 373.584C479.603 373.797 480.179 374.027 480.638 374.272C481.096 374.517 481.464 374.859 481.742 375.296C482.03 375.723 482.174 376.267 482.174 376.928C482.174 377.568 482.014 378.133 481.694 378.624C481.384 379.115 480.931 379.499 480.334 379.776C479.747 380.053 479.048 380.192 478.238 380.192C476.712 380.192 475.464 379.717 474.494 378.768L475.326 377.84C475.774 378.203 476.227 378.48 476.686 378.672C477.144 378.853 477.656 378.944 478.222 378.944C478.904 378.944 479.47 378.779 479.918 378.448C480.366 378.107 480.59 377.616 480.59 376.976C480.59 376.613 480.52 376.315 480.382 376.08C480.243 375.835 480.003 375.616 479.662 375.424C479.331 375.232 478.846 375.04 478.206 374.848C477.075 374.507 476.248 374.096 475.726 373.616C475.203 373.136 474.942 372.485 474.942 371.664C474.942 371.109 475.086 370.613 475.374 370.176C475.672 369.739 476.083 369.397 476.606 369.152C477.139 368.907 477.742 368.784 478.414 368.784ZM487.501 371.376C488.685 371.376 489.602 371.771 490.253 372.56C490.914 373.349 491.245 374.421 491.245 375.776C491.245 376.651 491.095 377.424 490.797 378.096C490.498 378.757 490.066 379.275 489.501 379.648C488.935 380.011 488.263 380.192 487.485 380.192C486.301 380.192 485.378 379.797 484.717 379.008C484.055 378.219 483.725 377.147 483.725 375.792C483.725 374.917 483.874 374.149 484.173 373.488C484.471 372.816 484.903 372.299 485.469 371.936C486.034 371.563 486.711 371.376 487.501 371.376ZM487.501 372.56C486.039 372.56 485.309 373.637 485.309 375.792C485.309 377.936 486.034 379.008 487.485 379.008C488.935 379.008 489.661 377.931 489.661 375.776C489.661 373.632 488.941 372.56 487.501 372.56ZM499.948 380H498.684L498.572 378.688C498.252 379.211 497.884 379.595 497.468 379.84C497.052 380.075 496.546 380.192 495.948 380.192C495.212 380.192 494.636 379.968 494.22 379.52C493.804 379.072 493.596 378.437 493.596 377.616V371.568H495.068V377.456C495.068 378.032 495.17 378.443 495.372 378.688C495.575 378.923 495.906 379.04 496.364 379.04C497.186 379.04 497.89 378.555 498.476 377.584V371.568H499.948V380ZM507.245 379.616C506.69 380 506.061 380.192 505.357 380.192C504.642 380.192 504.082 379.989 503.677 379.584C503.282 379.168 503.085 378.571 503.085 377.792V372.704H501.613V371.568H503.085V369.664L504.557 369.488V371.568H506.557L506.397 372.704H504.557V377.728C504.557 378.165 504.631 378.485 504.781 378.688C504.941 378.88 505.202 378.976 505.565 378.976C505.895 378.976 506.269 378.864 506.685 378.64L507.245 379.616ZM512.738 371.376C513.506 371.376 514.103 371.605 514.53 372.064C514.967 372.523 515.186 373.152 515.186 373.952V380H513.714V374.16C513.714 373.563 513.597 373.141 513.362 372.896C513.138 372.651 512.807 372.528 512.37 372.528C511.933 372.528 511.543 372.656 511.202 372.912C510.861 373.168 510.541 373.531 510.242 374V380H508.77V368.192L510.242 368.032V372.736C510.903 371.829 511.735 371.376 512.738 371.376ZM525.179 368.784C525.915 368.784 526.545 368.891 527.067 369.104C527.59 369.307 528.097 369.627 528.587 370.064L527.755 370.992C527.339 370.661 526.929 370.421 526.523 370.272C526.129 370.112 525.702 370.032 525.243 370.032C524.667 370.032 524.193 370.165 523.819 370.432C523.446 370.699 523.259 371.088 523.259 371.6C523.259 371.92 523.323 372.192 523.451 372.416C523.579 372.629 523.814 372.827 524.155 373.008C524.507 373.189 525.014 373.381 525.675 373.584C526.369 373.797 526.945 374.027 527.403 374.272C527.862 374.517 528.23 374.859 528.507 375.296C528.795 375.723 528.939 376.267 528.939 376.928C528.939 377.568 528.779 378.133 528.459 378.624C528.15 379.115 527.697 379.499 527.099 379.776C526.513 380.053 525.814 380.192 525.003 380.192C523.478 380.192 522.23 379.717 521.259 378.768L522.091 377.84C522.539 378.203 522.993 378.48 523.451 378.672C523.91 378.853 524.422 378.944 524.987 378.944C525.67 378.944 526.235 378.779 526.683 378.448C527.131 378.107 527.355 377.616 527.355 376.976C527.355 376.613 527.286 376.315 527.147 376.08C527.009 375.835 526.769 375.616 526.427 375.424C526.097 375.232 525.611 375.04 524.971 374.848C523.841 374.507 523.014 374.096 522.491 373.616C521.969 373.136 521.707 372.485 521.707 371.664C521.707 371.109 521.851 370.613 522.139 370.176C522.438 369.739 522.849 369.397 523.371 369.152C523.905 368.907 524.507 368.784 525.179 368.784ZM535.066 371.376C535.834 371.376 536.431 371.605 536.858 372.064C537.295 372.523 537.514 373.152 537.514 373.952V380H536.042V374.16C536.042 373.563 535.925 373.141 535.69 372.896C535.466 372.651 535.135 372.528 534.698 372.528C534.261 372.528 533.871 372.656 533.53 372.912C533.189 373.168 532.869 373.531 532.57 374V380H531.098V368.192L532.57 368.032V372.736C533.231 371.829 534.063 371.376 535.066 371.376ZM543.641 371.376C544.825 371.376 545.742 371.771 546.393 372.56C547.054 373.349 547.385 374.421 547.385 375.776C547.385 376.651 547.236 377.424 546.937 378.096C546.638 378.757 546.206 379.275 545.641 379.648C545.076 380.011 544.404 380.192 543.625 380.192C542.441 380.192 541.518 379.797 540.857 379.008C540.196 378.219 539.865 377.147 539.865 375.792C539.865 374.917 540.014 374.149 540.313 373.488C540.612 372.816 541.044 372.299 541.609 371.936C542.174 371.563 542.852 371.376 543.641 371.376ZM543.641 372.56C542.18 372.56 541.449 373.637 541.449 375.792C541.449 377.936 542.174 379.008 543.625 379.008C545.076 379.008 545.801 377.931 545.801 375.776C545.801 373.632 545.081 372.56 543.641 372.56ZM553.481 371.376C553.78 371.376 554.057 371.408 554.313 371.472L554.041 372.912C553.785 372.848 553.54 372.816 553.305 372.816C552.782 372.816 552.361 373.008 552.041 373.392C551.721 373.776 551.47 374.373 551.289 375.184V380H549.817V371.568H551.081L551.225 373.28C551.449 372.651 551.753 372.176 552.137 371.856C552.521 371.536 552.969 371.376 553.481 371.376ZM561.872 375.536C561.872 375.781 561.862 376.032 561.84 376.288H556.464C556.528 377.216 556.763 377.899 557.168 378.336C557.574 378.773 558.096 378.992 558.736 378.992C559.142 378.992 559.515 378.933 559.856 378.816C560.198 378.699 560.555 378.512 560.928 378.256L561.568 379.136C560.672 379.84 559.691 380.192 558.624 380.192C557.451 380.192 556.534 379.808 555.872 379.04C555.222 378.272 554.896 377.216 554.896 375.872C554.896 374.997 555.035 374.224 555.312 373.552C555.6 372.869 556.006 372.336 556.528 371.952C557.062 371.568 557.686 371.376 558.4 371.376C559.52 371.376 560.379 371.744 560.976 372.48C561.574 373.216 561.872 374.235 561.872 375.536ZM560.416 375.104C560.416 374.272 560.251 373.637 559.92 373.2C559.59 372.763 559.094 372.544 558.432 372.544C557.227 372.544 556.571 373.429 556.464 375.2H560.416V375.104ZM570.41 367.184V381.568H570.058V367.184H570.41ZM589.237 380H587.765L587.381 375.024C587.221 373.072 587.131 371.573 587.109 370.528L584.725 378.752H583.301L580.789 370.512C580.789 371.845 580.72 373.387 580.581 375.136L580.213 380H578.773L579.685 368.976H581.733L584.053 376.992L586.261 368.976H588.325L589.237 380ZM597.434 378.032C597.434 378.373 597.493 378.629 597.61 378.8C597.728 378.96 597.904 379.083 598.138 379.168L597.802 380.192C597.365 380.139 597.013 380.016 596.746 379.824C596.48 379.632 596.282 379.333 596.154 378.928C595.589 379.771 594.752 380.192 593.642 380.192C592.81 380.192 592.154 379.957 591.674 379.488C591.194 379.019 590.954 378.405 590.954 377.648C590.954 376.752 591.274 376.064 591.914 375.584C592.565 375.104 593.482 374.864 594.666 374.864H595.962V374.24C595.962 373.643 595.818 373.216 595.53 372.96C595.242 372.704 594.8 372.576 594.202 372.576C593.584 372.576 592.826 372.725 591.93 373.024L591.562 371.952C592.608 371.568 593.578 371.376 594.474 371.376C595.466 371.376 596.208 371.621 596.698 372.112C597.189 372.592 597.434 373.28 597.434 374.176V378.032ZM593.978 379.088C594.821 379.088 595.482 378.651 595.962 377.776V375.84H594.858C593.301 375.84 592.522 376.416 592.522 377.568C592.522 378.069 592.645 378.448 592.89 378.704C593.136 378.96 593.498 379.088 593.978 379.088ZM601.981 380.192C601.437 380.192 601.005 380.032 600.685 379.712C600.376 379.381 600.221 378.923 600.221 378.336V368.176L601.693 368V378.304C601.693 378.539 601.731 378.709 601.805 378.816C601.891 378.923 602.029 378.976 602.221 378.976C602.424 378.976 602.605 378.944 602.765 378.88L603.149 379.904C602.797 380.096 602.408 380.192 601.981 380.192ZM606.461 371.568V380H604.989V371.568H606.461ZM605.709 367.52C606.018 367.52 606.269 367.616 606.461 367.808C606.653 368 606.749 368.24 606.749 368.528C606.749 368.816 606.653 369.056 606.461 369.248C606.269 369.429 606.018 369.52 605.709 369.52C605.41 369.52 605.165 369.429 604.973 369.248C604.781 369.056 604.685 368.816 604.685 368.528C604.685 368.24 604.781 368 604.973 367.808C605.165 367.616 605.41 367.52 605.709 367.52ZM613.36 371.376C614.32 371.376 615.083 371.765 615.648 372.544C616.214 373.312 616.496 374.389 616.496 375.776C616.496 376.651 616.363 377.424 616.096 378.096C615.83 378.757 615.446 379.275 614.944 379.648C614.443 380.011 613.856 380.192 613.184 380.192C612.299 380.192 611.552 379.819 610.944 379.072L610.8 380H609.504V368.176L610.976 368V372.624C611.584 371.792 612.379 371.376 613.36 371.376ZM612.832 379.024C613.483 379.024 613.99 378.763 614.352 378.24C614.726 377.707 614.912 376.885 614.912 375.776C614.912 374.635 614.742 373.813 614.4 373.312C614.059 372.8 613.574 372.544 612.944 372.544C612.198 372.544 611.542 372.981 610.976 373.856V377.888C611.2 378.24 611.472 378.517 611.792 378.72C612.123 378.923 612.47 379.024 612.832 379.024ZM625.276 380H624.012L623.9 378.688C623.58 379.211 623.212 379.595 622.796 379.84C622.38 380.075 621.874 380.192 621.276 380.192C620.54 380.192 619.964 379.968 619.548 379.52C619.132 379.072 618.924 378.437 618.924 377.616V371.568H620.396V377.456C620.396 378.032 620.498 378.443 620.7 378.688C620.903 378.923 621.234 379.04 621.692 379.04C622.514 379.04 623.218 378.555 623.804 377.584V371.568H625.276V380ZM628.701 377.968C629.021 377.968 629.288 378.075 629.501 378.288C629.714 378.501 629.821 378.763 629.821 379.072C629.821 379.403 629.725 379.781 629.533 380.208L628.461 382.656H627.405L628.045 380C627.906 379.893 627.794 379.76 627.709 379.6C627.634 379.44 627.597 379.264 627.597 379.072C627.597 378.763 627.704 378.501 627.917 378.288C628.13 378.075 628.392 377.968 628.701 377.968ZM640.331 368.784C640.992 368.784 641.547 368.869 641.995 369.04C642.454 369.211 642.918 369.488 643.387 369.872L642.555 370.848C641.883 370.304 641.174 370.032 640.427 370.032C639.51 370.032 638.768 370.384 638.203 371.088C637.648 371.792 637.371 372.923 637.371 374.48C637.371 375.995 637.648 377.115 638.203 377.84C638.758 378.555 639.494 378.912 640.411 378.912C640.88 378.912 641.291 378.832 641.643 378.672C641.995 378.512 642.368 378.288 642.763 378L643.515 378.96C643.174 379.312 642.736 379.605 642.203 379.84C641.67 380.075 641.056 380.192 640.363 380.192C639.467 380.192 638.667 379.973 637.963 379.536C637.27 379.088 636.726 378.437 636.331 377.584C635.947 376.72 635.755 375.685 635.755 374.48C635.755 373.275 635.958 372.245 636.363 371.392C636.768 370.528 637.318 369.877 638.011 369.44C638.704 369.003 639.478 368.784 640.331 368.784ZM651.3 380L650.468 377.232H646.292L645.46 380H643.924L647.46 368.976H649.38L652.9 380H651.3ZM646.66 376H650.1L648.388 370.24L646.66 376Z" fill="white"/>
<path d="M598.378 75.784C599.039 75.784 599.594 75.8693 600.042 76.04C600.501 76.2107 600.965 76.488 601.434 76.872L600.602 77.848C599.93 77.304 599.221 77.032 598.474 77.032C597.557 77.032 596.815 77.384 596.25 78.088C595.695 78.792 595.418 79.9227 595.418 81.48C595.418 82.9947 595.695 84.1147 596.25 84.84C596.805 85.5547 597.541 85.912 598.458 85.912C598.927 85.912 599.338 85.832 599.69 85.672C600.042 85.512 600.415 85.288 600.81 85L601.562 85.96C601.221 86.312 600.783 86.6053 600.25 86.84C599.717 87.0747 599.103 87.192 598.41 87.192C597.514 87.192 596.714 86.9733 596.01 86.536C595.317 86.088 594.773 85.4373 594.378 84.584C593.994 83.72 593.802 82.6853 593.802 81.48C593.802 80.2747 594.005 79.2453 594.41 78.392C594.815 77.528 595.365 76.8773 596.058 76.44C596.751 76.0027 597.525 75.784 598.378 75.784ZM609.401 87H608.137L608.025 85.688C607.705 86.2107 607.337 86.5947 606.921 86.84C606.505 87.0747 605.999 87.192 605.401 87.192C604.665 87.192 604.089 86.968 603.673 86.52C603.257 86.072 603.049 85.4373 603.049 84.616V78.568H604.521V84.456C604.521 85.032 604.623 85.4427 604.825 85.688C605.028 85.9227 605.359 86.04 605.817 86.04C606.639 86.04 607.343 85.5547 607.929 84.584V78.568H609.401V87ZM616.106 78.376C616.405 78.376 616.682 78.408 616.938 78.472L616.666 79.912C616.41 79.848 616.165 79.816 615.93 79.816C615.407 79.816 614.986 80.008 614.666 80.392C614.346 80.776 614.095 81.3733 613.914 82.184V87H612.442V78.568H613.706L613.85 80.28C614.074 79.6507 614.378 79.176 614.762 78.856C615.146 78.536 615.594 78.376 616.106 78.376ZM622.278 78.376C622.576 78.376 622.854 78.408 623.11 78.472L622.838 79.912C622.582 79.848 622.336 79.816 622.102 79.816C621.579 79.816 621.158 80.008 620.838 80.392C620.518 80.776 620.267 81.3733 620.086 82.184V87H618.614V78.568H619.878L620.022 80.28C620.246 79.6507 620.55 79.176 620.934 78.856C621.318 78.536 621.766 78.376 622.278 78.376ZM630.669 82.536C630.669 82.7813 630.659 83.032 630.637 83.288H625.261C625.325 84.216 625.56 84.8987 625.965 85.336C626.371 85.7733 626.893 85.992 627.533 85.992C627.939 85.992 628.312 85.9333 628.653 85.816C628.995 85.6987 629.352 85.512 629.725 85.256L630.365 86.136C629.469 86.84 628.488 87.192 627.421 87.192C626.248 87.192 625.331 86.808 624.669 86.04C624.019 85.272 623.693 84.216 623.693 82.872C623.693 81.9973 623.832 81.224 624.109 80.552C624.397 79.8693 624.803 79.336 625.325 78.952C625.859 78.568 626.483 78.376 627.197 78.376C628.317 78.376 629.176 78.744 629.773 79.48C630.371 80.216 630.669 81.2347 630.669 82.536ZM629.213 82.104C629.213 81.272 629.048 80.6373 628.717 80.2C628.387 79.7627 627.891 79.544 627.229 79.544C626.024 79.544 625.368 80.4293 625.261 82.2H629.213V82.104ZM636.988 78.376C637.756 78.376 638.353 78.6053 638.78 79.064C639.217 79.5227 639.436 80.152 639.436 80.952V87H637.964V81.16C637.964 80.5627 637.852 80.1413 637.628 79.896C637.404 79.6507 637.073 79.528 636.636 79.528C636.188 79.528 635.793 79.656 635.452 79.912C635.111 80.168 634.791 80.536 634.492 81.016V87H633.02V78.568H634.284L634.412 79.816C634.711 79.368 635.079 79.016 635.516 78.76C635.964 78.504 636.455 78.376 636.988 78.376ZM646.651 86.616C646.096 87 645.467 87.192 644.763 87.192C644.048 87.192 643.488 86.9893 643.083 86.584C642.688 86.168 642.491 85.5707 642.491 84.792V79.704H641.019V78.568H642.491V76.664L643.963 76.488V78.568H645.963L645.803 79.704H643.963V84.728C643.963 85.1653 644.038 85.4853 644.187 85.688C644.347 85.88 644.608 85.976 644.971 85.976C645.302 85.976 645.675 85.864 646.091 85.64L646.651 86.616ZM654.011 75.976V85.672H658.539L658.363 87H652.491V75.976H654.011ZM663.141 78.376C664.325 78.376 665.242 78.7707 665.893 79.56C666.554 80.3493 666.885 81.4213 666.885 82.776C666.885 83.6507 666.736 84.424 666.437 85.096C666.138 85.7573 665.706 86.2747 665.141 86.648C664.576 87.0107 663.904 87.192 663.125 87.192C661.941 87.192 661.018 86.7973 660.357 86.008C659.696 85.2187 659.365 84.1467 659.365 82.792C659.365 81.9173 659.514 81.1493 659.813 80.488C660.112 79.816 660.544 79.2987 661.109 78.936C661.674 78.5627 662.352 78.376 663.141 78.376ZM663.141 79.56C661.68 79.56 660.949 80.6373 660.949 82.792C660.949 84.936 661.674 86.008 663.125 86.008C664.576 86.008 665.301 84.9307 665.301 82.776C665.301 80.632 664.581 79.56 663.141 79.56ZM672.389 78.376C672.89 78.376 673.349 78.4507 673.765 78.6C674.181 78.7387 674.581 78.968 674.965 79.288L674.261 80.216C673.962 80.0027 673.669 79.848 673.381 79.752C673.104 79.6453 672.794 79.592 672.453 79.592C671.77 79.592 671.237 79.864 670.853 80.408C670.48 80.952 670.293 81.7573 670.293 82.824C670.293 83.8907 670.48 84.68 670.853 85.192C671.226 85.6933 671.76 85.944 672.453 85.944C672.784 85.944 673.088 85.896 673.365 85.8C673.642 85.6933 673.952 85.528 674.293 85.304L674.965 86.264C674.197 86.8827 673.338 87.192 672.389 87.192C671.248 87.192 670.346 86.808 669.685 86.04C669.034 85.272 668.709 84.2107 668.709 82.856C668.709 81.96 668.858 81.176 669.157 80.504C669.456 79.832 669.877 79.3093 670.421 78.936C670.976 78.5627 671.632 78.376 672.389 78.376ZM682.481 85.032C682.481 85.3733 682.54 85.6293 682.657 85.8C682.775 85.96 682.951 86.0827 683.185 86.168L682.849 87.192C682.412 87.1387 682.06 87.016 681.793 86.824C681.527 86.632 681.329 86.3333 681.201 85.928C680.636 86.7707 679.799 87.192 678.689 87.192C677.857 87.192 677.201 86.9573 676.721 86.488C676.241 86.0187 676.001 85.4053 676.001 84.648C676.001 83.752 676.321 83.064 676.961 82.584C677.612 82.104 678.529 81.864 679.713 81.864H681.009V81.24C681.009 80.6427 680.865 80.216 680.577 79.96C680.289 79.704 679.847 79.576 679.249 79.576C678.631 79.576 677.873 79.7253 676.977 80.024L676.609 78.952C677.655 78.568 678.625 78.376 679.521 78.376C680.513 78.376 681.255 78.6213 681.745 79.112C682.236 79.592 682.481 80.28 682.481 81.176V85.032ZM679.025 86.088C679.868 86.088 680.529 85.6507 681.009 84.776V82.84H679.905C678.348 82.84 677.569 83.416 677.569 84.568C677.569 85.0693 677.692 85.448 677.937 85.704C678.183 85.96 678.545 86.088 679.025 86.088ZM689.76 86.616C689.206 87 688.576 87.192 687.872 87.192C687.158 87.192 686.598 86.9893 686.192 86.584C685.798 86.168 685.6 85.5707 685.6 84.792V79.704H684.128V78.568H685.6V76.664L687.072 76.488V78.568H689.072L688.912 79.704H687.072V84.728C687.072 85.1653 687.147 85.4853 687.296 85.688C687.456 85.88 687.718 85.976 688.08 85.976C688.411 85.976 688.784 85.864 689.2 85.64L689.76 86.616ZM692.758 78.568V87H691.286V78.568H692.758ZM692.006 74.52C692.315 74.52 692.566 74.616 692.758 74.808C692.95 75 693.046 75.24 693.046 75.528C693.046 75.816 692.95 76.056 692.758 76.248C692.566 76.4293 692.315 76.52 692.006 76.52C691.707 76.52 691.462 76.4293 691.27 76.248C691.078 76.056 690.982 75.816 690.982 75.528C690.982 75.24 691.078 75 691.27 74.808C691.462 74.616 691.707 74.52 692.006 74.52ZM698.969 78.376C700.153 78.376 701.071 78.7707 701.721 79.56C702.383 80.3493 702.713 81.4213 702.713 82.776C702.713 83.6507 702.564 84.424 702.265 85.096C701.967 85.7573 701.535 86.2747 700.969 86.648C700.404 87.0107 699.732 87.192 698.953 87.192C697.769 87.192 696.847 86.7973 696.185 86.008C695.524 85.2187 695.193 84.1467 695.193 82.792C695.193 81.9173 695.343 81.1493 695.641 80.488C695.94 79.816 696.372 79.2987 696.937 78.936C697.503 78.5627 698.18 78.376 698.969 78.376ZM698.969 79.56C697.508 79.56 696.777 80.6373 696.777 82.792C696.777 84.936 697.503 86.008 698.953 86.008C700.404 86.008 701.129 84.9307 701.129 82.776C701.129 80.632 700.409 79.56 698.969 79.56ZM709.113 78.376C709.881 78.376 710.478 78.6053 710.905 79.064C711.342 79.5227 711.561 80.152 711.561 80.952V87H710.089V81.16C710.089 80.5627 709.977 80.1413 709.753 79.896C709.529 79.6507 709.198 79.528 708.761 79.528C708.313 79.528 707.918 79.656 707.577 79.912C707.236 80.168 706.916 80.536 706.617 81.016V87H705.145V78.568H706.409L706.537 79.816C706.836 79.368 707.204 79.016 707.641 78.76C708.089 78.504 708.58 78.376 709.113 78.376Z" fill="white"/>
</svg>
